<svg xmlns="http://www.w3.org/2000/svg" viewBox="0 0 64 64" fill="none" stroke="#1a1a1a" stroke-width="1.5">
  <polygon points="20,8 44,8 56,18 56,46 44,56 20,56 8,46 8,18"/>
  <polygon points="24,14 40,14 50,22 50,42 40,50 24,50 14,42 14,22" fill="#1a1a1a" fill-opacity="0.06"/>
  <polygon points="28,20 36,20 44,26 44,38 36,44 28,44 20,38 20,26" fill="#1a1a1a" fill-opacity="0.06"/>
  <line x1="20" y1="8" x2="28" y2="20"/>
  <line x1="44" y1="8" x2="36" y2="20"/>
  <line x1="56" y1="18" x2="44" y2="26"/>
  <line x1="56" y1="46" x2="44" y2="38"/>
  <line x1="44" y1="56" x2="36" y2="44"/>
  <line x1="20" y1="56" x2="28" y2="44"/>
  <line x1="8" y1="46" x2="20" y2="38"/>
  <line x1="8" y1="18" x2="20" y2="26"/>
</svg>
