<svg xmlns="http://www.w3.org/2000/svg" viewBox="0 0 64 64" fill="none" stroke="#1a1a1a" stroke-width="1.5">
  <polygon points="20,8 44,8 56,20 56,44 44,56 20,56 8,44 8,20"/>
  <polygon points="24,14 40,14 50,24 50,40 40,50 24,50 14,40 14,24" fill="#1a1a1a" fill-opacity="0.06"/>
  <polygon points="28,20 36,20 44,28 44,36 36,44 28,44 20,36 20,28" fill="#1a1a1a" fill-opacity="0.06"/>
  <line x1="32" y1="8" x2="32" y2="56"/>
  <line x1="8" y1="32" x2="56" y2="32"/>
  <line x1="20" y1="8" x2="44" y2="56"/>
  <line x1="44" y1="8" x2="20" y2="56"/>
</svg>
